<?xml version="1.0" standalone="no"?>
<!DOCTYPE svg PUBLIC "-//W3C//DTD SVG 20010904//EN"
 "http://www.w3.org/TR/2001/REC-SVG-20010904/DTD/svg10.dtd">
<svg version="1.0" xmlns="http://www.w3.org/2000/svg"
 width="928.000000pt" height="928.000000pt" viewBox="0 0 928.000000 928.000000"
 preserveAspectRatio="xMidYMid meet">
<metadata>
Created by potrace 1.14, written by Peter Selinger 2001-2017
</metadata>
<g transform="translate(0.000000,928.000000) scale(0.100000,-0.100000)"
fill="#000000" stroke="none">
<path d="M4398 9115 c-1 -1 -46 -6 -98 -9 -52 -4 -111 -9 -130 -11 -19 -2 -57
-7 -85 -9 -27 -3 -61 -7 -75 -10 -14 -2 -43 -7 -65 -10 -22 -3 -50 -7 -61 -10
-12 -2 -37 -7 -55 -10 -38 -6 -72 -13 -109 -22 -14 -3 -37 -7 -51 -10 -14 -3
-93 -23 -175 -45 -82 -21 -157 -41 -168 -44 -16 -4 -53 -16 -126 -43 -8 -3
-19 -6 -25 -8 -23 -5 -163 -58 -202 -75 -23 -11 -44 -19 -47 -19 -2 0 -35 -14
-73 -31 -37 -17 -68 -29 -68 -28 0 1 -27 -12 -59 -30 -32 -17 -65 -31 -72 -31
-8 0 -14 -4 -14 -10 0 -5 -9 -10 -19 -10 -11 0 -21 -3 -23 -7 -1 -5 -41 -28
-88 -52 -47 -24 -92 -50 -101 -57 -8 -8 -19 -14 -22 -14 -15 0 -309 -189 -315
-202 -2 -5 -8 -8 -13 -8 -5 0 -17 -7 -26 -15 -10 -8 -45 -34 -78 -59 -95 -72
-118 -90 -131 -103 -7 -7 -15 -13 -18 -13 -3 0 -14 -8 -24 -17 -10 -10 -50
-45 -88 -78 -75 -64 -380 -368 -429 -427 -16 -20 -46 -55 -65 -78 -19 -24 -50
-60 -67 -80 -18 -21 -33 -40 -33 -44 0 -3 -8 -14 -17 -24 -10 -10 -25 -29 -33
-42 -8 -12 -20 -28 -25 -34 -10 -11 -79 -109 -105 -150 -8 -13 -33 -50 -54
-82 -100 -151 -220 -375 -340 -637 -30 -66 -132 -339 -146 -392 -7 -27 -18
-56 -24 -64 -6 -8 -10 -16 -8 -18 1 -1 2 -4 1 -5 0 -2 -2 -10 -4 -18 -3 -8
-23 -85 -45 -170 -22 -85 -43 -168 -45 -185 -3 -16 -7 -41 -10 -55 -2 -14 -7
-38 -10 -55 -3 -16 -7 -41 -10 -55 -8 -40 -13 -72 -20 -129 -4 -30 -8 -62 -10
-71 -10 -50 -25 -236 -29 -346 -1 -38 -5 -75 -9 -81 -4 -5 -4 -13 0 -17 9 -9
10 -56 2 -56 -4 0 -4 -13 1 -29 4 -16 6 -32 3 -35 -7 -7 -7 -192 0 -203 3 -5
2 -15 -3 -23 -4 -7 -4 -24 1 -37 5 -13 5 -23 0 -23 -5 0 -5 -16 -1 -35 4 -19
5 -35 1 -35 -3 0 -5 -17 -3 -37 4 -51 2 -104 -4 -115 -3 -4 -1 -8 5 -8 7 0 7
-8 1 -25 -6 -15 -6 -26 1 -30 5 -4 7 -11 3 -16 -8 -13 -9 -107 -1 -115 3 -3 2
-17 -3 -30 -6 -14 -6 -26 0 -29 5 -3 7 -11 5 -18 -8 -20 -11 -117 -5 -117 4 0
4 -22 0 -50 -4 -27 -3 -50 2 -50 4 0 3 -11 -2 -25 -6 -15 -6 -27 0 -30 5 -3 7
-12 4 -20 -9 -22 -10 -105 -2 -105 4 0 3 -13 -2 -30 -5 -16 -6 -30 -2 -30 4 0
7 -18 7 -40 0 -22 -2 -40 -5 -40 -3 0 -4 -17 -2 -37 4 -51 2 -104 -4 -115 -3
-4 -1 -8 5 -8 7 0 7 -8 1 -25 -6 -15 -6 -26 1 -30 5 -4 7 -11 3 -16 -8 -13 -9
-107 -1 -115 3 -3 2 -17 -3 -30 -6 -14 -6 -26 0 -29 5 -3 7 -11 5 -18 -8 -20
-11 -117 -5 -117 4 0 4 -22 0 -50 -4 -27 -3 -50 2 -50 4 0 3 -11 -2 -25 -6
-15 -6 -27 0 -30 5 -3 7 -12 4 -20 -9 -22 -10 -105 -2 -105 4 0 3 -13 -2 -30
-5 -16 -6 -30 -2 -30 4 0 7 -18 7 -40 0 -22 -2 -40 -5 -40 -3 0 -4 -17 -2 -37
4 -51 2 -104 -4 -115 -3 -4 -1 -8 5 -8 7 0 7 -8 1 -25 -6 -15 -6 -26 1 -30 5
-4 7 -11 3 -16 -8 -13 -9 -107 -1 -115 3 -3 2 -17 -3 -30 -6 -14 -6 -26 0 -29
5 -3 7 -11 5 -18 -8 -20 -11 -117 -5 -117 4 0 4 -22 0 -50 -4 -27 -3 -50 2
-50 4 0 3 -11 -2 -25 -6 -15 -6 -27 0 -30 5 -3 7 -12 4 -20 -9 -22 -10 -105
-2 -105 4 0 3 -13 -2 -30 -5 -16 -6 -30 -2 -30 4 0 7 -18 7 -40 0 -22 -2 -40
-5 -40 -3 0 -4 -17 -2 -37 4 -51 2 -104 -4 -115 -3 -4 -1 -8 5 -8 7 0 7 -8 1
-25 -6 -15 -6 -26 1 -30 5 -4 7 -11 3 -16 -8 -13 -9 -107 -1 -115 3 -3 2 -17
-3 -30 -6 -14 -6 -26 0 -29 5 -3 7 -11 5 -18 -7 -18 -11 -117 -5 -117 3 0 5
-20 5 -45 0 -25 -2 -45 -5 -45 -3 0 -5 -13 -5 -30 0 -16 3 -30 7 -30 4 0 3
-13 -2 -30 -8 -27 -6 -31 16 -36 13 -3 31 -4 39 -1 8 4 17 3 19 -2 3 -4 22 -5
43 -2 21 4 57 4 80 0 24 -3 43 -2 43 3 0 5 4 6 10 3 5 -3 33 -5 62 -5 63 1 73
1 160 -1 37 0 72 2 78 6 5 3 10 2 10 -3 0 -5 17 -6 40 -2 22 4 40 4 40 0 0 -4
18 -4 40 0 22 4 40 4 40 0 0 -4 18 -4 40 0 22 4 57 4 78 0 20 -3 49 -3 63 1
15 3 33 3 40 -2 15 -9 32 -2 24 10 -4 7 -6 92 -4 151 0 8 0 44 0 80 0 36 0 72
0 80 1 8 1 44 0 80 0 36 0 72 0 80 0 8 0 44 0 80 0 36 0 72 0 80 1 8 1 44 0
80 0 36 0 72 0 80 0 20 0 232 -2 350 0 52 0 102 0 110 0 8 0 38 0 65 0 28 0
77 1 110 0 33 0 122 0 198 0 76 -2 142 -5 148 -4 5 -1 9 5 9 6 0 9 4 6 9 -3 5
-6 55 -6 112 0 57 0 147 -1 199 0 52 0 102 0 110 0 8 0 38 0 65 0 28 0 77 1
110 0 33 0 122 0 198 0 76 -2 142 -5 148 -4 5 -1 9 5 9 6 0 9 4 6 9 -5 8 -6
67 -6 276 1 39 1 95 1 125 0 30 0 63 0 73 0 9 0 62 0 117 0 55 0 119 0 143 0
23 0 71 0 107 0 36 0 74 0 85 0 29 1 228 0 243 -2 68 -1 117 5 237 6 143 11
210 14 210 1 0 3 18 5 40 2 22 6 56 9 75 3 19 8 53 11 75 3 22 8 47 10 55 3 8
7 33 10 55 4 22 8 48 11 57 3 10 8 30 11 45 7 41 9 46 16 68 3 11 8 31 11 45
5 27 22 84 54 190 11 36 39 112 62 170 23 58 44 115 47 128 3 12 9 22 14 22 5
0 9 6 9 14 0 18 92 210 102 214 5 2 8 11 8 21 0 9 5 22 10 27 13 13 59 93 67
117 3 9 9 17 13 17 4 0 15 18 25 40 10 22 22 40 27 40 4 0 8 6 8 13 0 7 8 22
18 33 9 11 22 27 27 36 27 41 54 80 110 153 33 44 62 82 65 85 3 3 18 21 34
40 113 138 279 306 422 427 121 103 173 143 183 143 6 0 11 4 11 8 0 10 303
212 317 212 5 0 18 8 29 18 11 9 24 18 29 19 6 1 48 22 94 47 47 25 90 46 97
46 6 0 17 7 24 15 7 8 20 15 29 15 9 0 21 4 26 9 6 4 53 25 105 46 52 21 109
43 125 50 38 16 222 75 254 81 14 3 29 8 35 12 6 3 17 7 26 8 28 3 70 13 79
18 5 3 26 8 47 11 22 4 47 8 56 11 24 7 58 14 98 19 19 3 46 7 59 10 25 5 140
20 226 30 28 3 96 7 152 9 56 2 106 6 110 9 5 3 15 2 22 -3 8 -4 26 -4 42 0
15 5 30 6 32 4 3 -3 67 -7 143 -9 77 -3 150 -7 164 -9 14 -3 57 -8 95 -12 39
-3 73 -8 76 -10 3 -2 30 -6 60 -9 66 -7 79 -9 104 -18 11 -4 34 -9 50 -11 47
-7 86 -16 138 -31 27 -8 52 -14 55 -13 4 1 15 -2 25 -5 9 -4 25 -10 35 -14 9
-3 26 -7 37 -8 11 -1 29 -6 40 -12 11 -6 25 -12 30 -13 13 -3 22 -6 70 -21 22
-7 42 -14 45 -14 7 -2 32 -12 180 -73 74 -30 137 -59 138 -64 2 -4 9 -8 16 -8
39 0 513 -282 524 -311 2 -5 10 -9 18 -9 8 0 14 -4 14 -10 0 -5 6 -10 14 -10
8 0 16 -3 18 -8 2 -4 23 -23 48 -42 25 -19 50 -39 56 -45 6 -5 33 -28 60 -50
123 -102 266 -245 414 -415 121 -138 287 -380 395 -575 48 -86 165 -327 165
-339 0 -2 8 -21 17 -42 9 -22 18 -42 19 -46 1 -5 3 -10 4 -13 1 -3 3 -8 5 -12
1 -5 5 -15 8 -23 26 -61 115 -362 131 -444 2 -11 11 -55 19 -96 9 -41 19 -97
23 -125 4 -27 9 -57 10 -65 2 -8 6 -42 9 -75 4 -33 8 -76 11 -95 5 -39 16
-286 15 -340 0 -19 0 -82 0 -140 0 -58 0 -112 0 -120 0 -8 0 -42 0 -75 0 -33
0 -87 0 -120 0 -33 0 -112 0 -175 0 -63 0 -122 0 -130 0 -8 0 -37 0 -65 0 -27
0 -77 -1 -110 0 -33 1 -89 1 -125 0 -36 0 -72 0 -80 0 -8 0 -67 0 -130 0 -63
0 -122 0 -130 0 -8 0 -37 0 -65 0 -27 0 -77 -1 -110 0 -33 1 -89 1 -125 0 -36
0 -72 0 -80 0 -8 0 -67 0 -130 0 -63 0 -122 0 -130 0 -8 0 -37 0 -65 0 -27 0
-77 -1 -110 0 -33 1 -89 1 -125 0 -36 0 -72 0 -80 0 -8 0 -67 0 -130 0 -63 0
-128 -1 -145 -1 -16 -2 -36 -1 -42 0 -16 1 -199 0 -255 0 -24 0 -72 0 -108 0
-36 0 -72 0 -80 0 -20 0 -232 2 -350 0 -52 0 -102 0 -110 0 -18 0 -97 0 -160
0 -25 -1 -70 -2 -101 -1 -31 1 -61 5 -67 7 -11 76 -22 76 -11 0 3 18 3 40 -1
22 -4 58 -4 80 0 22 4 40 4 40 0 0 -4 18 -4 40 0 22 4 40 4 40 0 0 -4 18 -4
40 0 22 4 40 4 40 0 0 -4 19 -4 42 0 24 5 47 6 51 3 12 -7 356 -5 367 2 6 4
10 3 10 -2 0 -4 21 -6 46 -4 44 3 46 4 42 32 -3 16 -2 29 2 29 6 0 2 101 -5
108 -2 3 0 13 5 23 7 12 7 20 0 24 -6 4 -7 13 -1 24 5 9 6 23 2 29 -4 7 -4 35
-1 62 4 28 3 50 -1 50 -4 0 -4 14 1 30 5 17 6 30 2 30 -4 0 -7 18 -7 40 0 22
2 40 5 40 3 0 4 17 2 38 -4 51 -2 124 4 134 3 4 1 8 -5 8 -6 0 -6 11 -1 30 5
17 6 30 2 30 -4 0 -7 18 -7 40 0 22 2 40 5 40 3 0 4 17 2 38 -3 45 -3 33 -1
173 1 64 -1 121 -5 127 -3 6 -2 13 3 17 7 4 7 15 1 30 -5 14 -6 25 -2 25 4 0
7 29 7 65 0 36 -3 65 -6 65 -3 0 -3 23 1 50 4 28 3 50 -2 50 -4 0 -3 11 2 25
6 15 6 27 0 30 -8 5 -2 33 10 55 2 3 -2 15 -8 27 -8 14 -9 24 -2 28 6 4 7 12
1 22 -5 9 -5 29 -1 45 5 15 5 28 0 28 -5 0 -5 13 0 30 5 17 5 30 0 30 -5 0 -5
13 0 30 5 17 5 30 1 30 -4 0 -5 23 -1 50 4 28 3 50 -2 50 -4 0 -3 11 2 25 6
15 6 26 -1 30 -5 4 -7 11 -3 16 8 13 9 107 1 115 -3 3 -2 17 3 30 6 14 6 26 0
29 -5 3 -7 11 -5 18 8 20 11 117 5 117 -4 0 -4 23 0 50 4 28 3 50 -2 50 -4 0
-3 11 2 25 6 15 6 27 0 30 -6 3 -5 16 1 33 11 29 11 29 -2 54 -6 10 -5 19 1
23 6 4 7 12 1 22 -5 9 -5 29 -1 45 5 15 5 28 0 28 -5 0 -5 13 0 30 5 17 5 30
0 30 -5 0 -5 13 0 30 5 19 5 30 -1 30 -6 0 -7 4 -4 10 8 13 9 255 1 268 -3 6
-2 13 3 17 7 4 7 15 1 30 -5 14 -6 25 -2 25 4 0 7 29 7 65 0 36 -3 65 -6 65
-3 0 -3 23 1 50 4 28 3 50 -2 50 -4 0 -3 11 2 25 6 15 6 27 0 30 -5 3 -7 12
-4 20 9 22 10 105 2 105 -4 0 -3 14 2 30 5 17 6 30 2 30 -4 0 -7 18 -7 40 0
22 2 40 5 40 3 0 4 17 2 38 -4 51 -2 124 4 134 3 4 1 8 -5 8 -6 0 -6 11 -1 30
5 17 6 30 2 30 -4 0 -7 16 -7 35 0 19 3 35 7 35 4 0 3 11 -2 24 -5 15 -5 27 3
35 6 6 7 11 2 11 -6 0 -11 39 -11 88 -2 141 -17 305 -44 482 -7 41 -14 89 -16
105 -6 37 -12 70 -14 70 -1 0 -4 14 -6 30 -2 17 -7 41 -11 55 -10 40 -11 44
-16 70 -3 14 -13 54 -22 90 -9 36 -18 70 -19 75 -6 26 -29 106 -47 165 -23 72
-26 82 -28 92 -4 15 -72 198 -91 243 -90 213 -179 399 -260 540 -22 39 -48 85
-57 103 -9 17 -20 32 -25 32 -4 0 -8 5 -8 10 0 11 -86 146 -107 168 -7 7 -13
19 -13 27 0 7 -3 15 -7 17 -5 2 -41 48 -82 103 -41 55 -80 105 -85 112 -6 6
-21 24 -33 40 -12 15 -31 39 -43 53 -12 14 -44 52 -73 85 -54 64 -325 336
-392 395 -22 19 -71 61 -110 93 -38 32 -80 67 -91 78 -12 10 -26 19 -32 19 -6
0 -12 4 -14 8 -9 21 -356 262 -377 262 -6 0 -11 4 -11 8 0 5 -15 16 -32 25
-18 9 -64 34 -103 57 -38 22 -122 66 -185 99 -97 49 -162 79 -355 161 -11 4
-47 18 -80 30 -33 13 -69 26 -80 30 -51 20 -70 27 -95 33 -8 2 -26 9 -40 14
-14 6 -41 14 -60 18 -19 4 -41 12 -47 17 -7 6 -13 8 -13 5 0 -3 -15 -1 -32 4
-58 18 -211 56 -268 68 -65 12 -90 18 -150 30 -25 5 -72 13 -105 17 -90 11
-100 12 -100 14 0 1 -11 3 -25 5 -14 1 -54 6 -90 10 -36 4 -85 9 -110 11 -54
6 -607 14 -612 9z"/>
<path d="M2262 4642 l-102 -3 5 -112 c5 -111 8 -151 21 -237 4 -25 7 -55 7
-67 0 -13 3 -23 6 -23 4 0 7 -10 8 -22 2 -64 57 -259 128 -458 9 -25 46 -103
82 -175 36 -71 71 -140 77 -152 6 -13 14 -23 19 -23 4 0 7 -5 7 -10 0 -8 51
-91 82 -135 31 -43 173 -220 188 -235 11 -11 20 -24 20 -29 0 -5 4 -11 10 -13
5 -1 46 -39 92 -84 159 -154 367 -310 513 -384 17 -8 32 -17 35 -20 9 -9 174
-88 230 -110 30 -12 64 -26 75 -30 41 -16 110 -42 112 -41 2 0 8 -1 15 -4 45
-15 166 -48 187 -51 32 -5 66 -12 66 -14 0 -3 39 -9 95 -16 30 -3 57 -8 60 -9
10 -6 115 -17 195 -20 46 -1 88 -6 93 -9 6 -3 13 -3 16 2 3 5 22 7 43 4 48 -5
42 -5 148 2 102 7 185 17 257 32 15 3 39 7 55 9 15 2 39 7 53 10 14 3 36 8 50
11 14 3 32 7 40 9 8 2 15 4 15 5 0 1 9 3 20 5 84 16 362 123 463 177 28 16 52
26 52 23 0 -3 6 -1 13 5 6 6 54 36 106 67 52 30 99 59 105 64 6 5 36 27 66 48
30 22 60 44 65 48 6 5 30 24 54 43 46 36 60 49 157 141 136 129 285 313 365
449 18 30 35 57 38 60 33 29 219 439 223 490 0 3 4 12 9 21 4 9 10 27 13 40 3
13 14 54 24 92 11 37 18 67 15 67 -2 0 0 8 6 18 8 15 12 39 26 137 3 17 7 46
11 65 17 99 27 327 13 335 -5 4 -115 6 -242 5 -128 -1 -239 -1 -247 -1 -144 2
-453 1 -456 -2 -3 -2 -7 -47 -9 -98 -2 -52 -7 -105 -11 -119 -3 -14 -7 -34 -8
-45 -1 -11 -6 -36 -11 -55 -4 -19 -9 -42 -10 -50 -1 -8 -5 -22 -8 -30 -2 -8
-19 -57 -37 -109 -36 -104 -103 -245 -131 -276 -10 -11 -17 -23 -16 -26 2 -7
-34 -58 -113 -159 -56 -72 -247 -250 -268 -250 -6 0 -12 -4 -14 -9 -11 -29
-319 -193 -388 -206 -11 -2 -24 -6 -28 -9 -13 -7 -152 -44 -194 -50 -21 -3
-55 -9 -75 -12 -21 -4 -58 -7 -83 -8 -25 -1 -51 -6 -58 -10 -7 -4 -12 -3 -12
2 0 5 -20 6 -45 2 -25 -4 -45 -4 -45 -1 0 3 -21 6 -47 7 -71 1 -151 11 -234
30 -41 9 -82 17 -91 17 -10 1 -18 5 -18 9 0 4 -8 8 -19 8 -39 0 -264 101 -338
151 -23 16 -44 29 -48 29 -6 0 -123 89 -169 130 -39 34 -141 140 -163 169 -10
13 -26 31 -35 39 -10 9 -18 22 -18 29 0 7 -4 13 -8 13 -4 0 -16 15 -26 33 -11
17 -28 42 -39 55 -11 12 -17 22 -12 22 4 0 1 8 -7 18 -31 35 -123 243 -144
322 -7 28 -26 105 -30 125 -14 59 -26 149 -29 219 -2 43 -8 83 -13 88 -5 5
-79 9 -163 8 -85 -1 -167 -1 -184 0 -68 3 -407 5 -503 2z"/>
</g>
</svg>
