<svg width="1440" height="551" fill="none" xmlns="http://www.w3.org/2000/svg"><path d="M-226 553l172.102-156.046c113.409-102.829 279.546-122.433 413.775-48.826v0c132.027 72.399 295.205 54.719 408.662-44.279l51.384-44.836c111.442-97.241 267.447-125.051 405.627-72.309L1465 278.101" stroke="url(#paint0_linear_701_4450)" stroke-width="50"/><path d="M877 449c0-13.807 11.193-25 25-25h22c13.807 0 25 11.193 25 25v114h-72V449z" fill="url(#paint1_linear_701_4450)"/><path d="M1003 399c0-13.807 11.19-25 25-25h22c13.81 0 25 11.193 25 25v200h-72V399z" fill="url(#paint2_linear_701_4450)"/><path d="M1129 239c0-13.807 11.19-25 25-25h22c13.81 0 25 11.193 25 25v324h-72V239z" fill="url(#paint3_linear_701_4450)"/><path d="M1255 25c0-13.807 11.19-25 25-25h22c13.81 0 25 11.193 25 25v538h-72V25z" fill="url(#paint4_linear_701_4450)"/><defs><linearGradient id="paint0_linear_701_4450" x1="980.535" y1="169.094" x2="143.45" y2="528.992" gradientUnits="userSpaceOnUse"><stop offset=".598" stop-color="#6466F1"/><stop offset=".956" stop-color="#5B5CE3"/></linearGradient><linearGradient id="paint1_linear_701_4450" x1="913" y1="424" x2="913" y2="563" gradientUnits="userSpaceOnUse"><stop offset=".51" stop-color="#6566F2"/><stop offset="1" stop-color="#5B5CE3"/></linearGradient><linearGradient id="paint2_linear_701_4450" x1="1039" y1="374" x2="1039" y2="599" gradientUnits="userSpaceOnUse"><stop offset=".51" stop-color="#6566F2"/><stop offset="1" stop-color="#5B5CE3"/></linearGradient><linearGradient id="paint3_linear_701_4450" x1="1165" y1="214" x2="1165" y2="563" gradientUnits="userSpaceOnUse"><stop offset=".51" stop-color="#6566F2"/><stop offset="1" stop-color="#5B5CE3"/></linearGradient><linearGradient id="paint4_linear_701_4450" x1="1291" y1="0" x2="1291" y2="563" gradientUnits="userSpaceOnUse"><stop offset=".51" stop-color="#6566F2"/><stop offset="1" stop-color="#5B5CE3"/></linearGradient></defs></svg>