<svg width="674" height="358" fill="none" xmlns="http://www.w3.org/2000/svg"><path d="M-4.5 339l98.594-83.397c20.383-17.241 49.706-18.941 71.945-4.171l50.542 33.569c25.965 17.246 60.811 11.737 80.191-12.678l58.846-74.137c19.216-24.21 53.68-29.859 79.62-13.053l45.53 29.498c27.957 18.113 65.317 9.984 83.221-18.107L680 14.5" stroke="url(#paint0_linear_816_4599)" stroke-width="20" stroke-miterlimit="1.414" stroke-linecap="square" stroke-linejoin="round"/><path d="M-29 267.206l87.192 40.255c24.238 11.19 52.955 5.02 70.457-15.14l19.74-22.736c20.435-23.538 55.49-27.508 80.671-9.136l45.11 32.912c24.97 18.218 59.693 14.486 80.221-8.622l25.127-28.285c17.621-19.836 46.179-25.743 70.224-14.525l94.715 44.189a59.999 59.999 0 0063.199-7.804L724 183.8" stroke="url(#paint1_linear_816_4599)" stroke-opacity=".5" stroke-width="20" stroke-miterlimit="1.414" stroke-linecap="square" stroke-linejoin="round"/><defs><linearGradient id="paint0_linear_816_4599" x1="500.5" y1="131.5" x2="-94" y2="463" gradientUnits="userSpaceOnUse"><stop stop-color="#7F7DDE"/><stop offset="1" stop-color="#7F7DDE" stop-opacity="0"/></linearGradient><linearGradient id="paint1_linear_816_4599" x1="410.035" y1="320.276" x2="-125.627" y2="189.699" gradientUnits="userSpaceOnUse"><stop stop-color="#DD8A85"/><stop offset="1" stop-color="#DD8A85" stop-opacity="0"/></linearGradient></defs></svg>