<svg width="53" height="33" fill="none" xmlns="http://www.w3.org/2000/svg"><path d="M33.075 29.213H18.996V3.99h14.08v25.222z" fill="#E2E2FF"/><path d="M19.888 16.602c0-5.116 2.403-9.674 6.145-12.61A16.054 16.054 0 0016.09.561C7.203.562 0 7.743 0 16.602s7.203 16.04 16.09 16.04a16.054 16.054 0 009.944-3.43c-3.742-2.936-6.146-7.494-6.146-12.61z" fill="#F5F5FA"/><path d="M52.07 16.603c0 8.859-7.203 16.04-16.09 16.04a16.059 16.059 0 01-9.945-3.43c3.744-2.937 6.147-7.494 6.147-12.61 0-5.117-2.404-9.674-6.147-12.611A16.059 16.059 0 0135.98.562c8.886 0 16.09 7.182 16.09 16.04z" fill="#fff"/></svg>