<svg width="38" height="38" fill="none" xmlns="http://www.w3.org/2000/svg"><g clip-path="url(#clip0_227_3926)"><rect y=".344" width="37" height="37" rx="18.5" transform="rotate(-.13 0 .344)" fill="#005BFF"/><path d="M10.519 15.737l11.092-2.492 30.31 38.25-25.877 13.54L10.52 15.737z" fill="#F62D5C"/><path fill-rule="evenodd" clip-rule="evenodd" d="M18.527 11.864c-5.106.012-9.243 3.125-9.234 6.959.009 3.833 4.16 6.928 9.265 6.916 5.106-.011 9.243-3.125 9.234-6.958-.008-3.834-4.16-6.928-9.265-6.917zm-6.148 6.952c.004 1.747 2.642 3.692 6.172 3.684 3.538-.009 6.16-1.965 6.155-3.712-.003-1.747-2.642-3.692-6.172-3.684-3.522.008-6.159 1.965-6.155 3.712z" fill="#fff"/></g><defs><clipPath id="clip0_227_3926"><rect y=".344" width="37" height="37" rx="18.5" transform="rotate(-.13 0 .344)" fill="#fff"/></clipPath></defs></svg>