<svg width="264" height="258" fill="none" xmlns="http://www.w3.org/2000/svg"><path d="M132 0C59.55 0 .591 57.62.005 128.142c-.293 34.399 13.199 67.079 38.132 91.446C62.776 244.24 95.922 257.714 131.121 258H132c72.451 0 131.409-57.62 131.996-128.14C264.583 58.767 205.624.573 132 0zm0 240.514h-.88c-30.504-.286-58.958-12.04-80.664-33.254-21.119-20.926-32.851-49.019-32.559-78.833.293-61.06 51.625-110.94 114.983-110.94 63.065.286 113.809 50.74 113.516 112.373-.585 61.06-51.917 110.653-114.396 110.653v.001z" fill="#4950B9"/><path d="M140.253 145.343c23.566 0 42.747-19.147 42.747-42.671 0-23.523-19.181-42.67-42.747-42.67L95.041 60c-4.385 0-7.946 3.556-7.946 7.931 0 4.377 3.563 7.932 7.946 7.932h11.235v53.339h-12.33c-4.385 0-7.946 3.556-7.946 7.931 0 4.377 3.563 7.932 7.946 7.932h12.33v7.386H94.767c-4.385 0-7.945 3.556-7.945 7.931 0 4.377 3.562 7.931 7.945 7.931h11.509v27.901c0 4.377 3.563 7.932 7.946 7.932 4.384 0 7.945-3.557 7.945-7.932l.002-27.349h45.762c4.385 0 7.945-3.557 7.945-7.931 0-4.377-3.562-7.932-7.945-7.932h-46.037v-7.386h18.36l-.001-.273zm-18.359-69.204h18.086c14.796 0 26.853 12.036 26.853 26.806 0 14.77-12.057 26.806-26.853 26.806h-18.086V76.139z" fill="#4950B9"/></svg>