<svg width="302" height="294" fill="none" xmlns="http://www.w3.org/2000/svg"><path d="M151 0C68.12 0 .676 65.66.005 146.022c-.334 39.199 15.1 76.44 43.622 104.206 28.185 28.094 66.102 43.447 106.367 43.773H151c82.88 0 150.324-65.66 150.995-146.02C302.667 66.967 235.222.653 151 0zm0 274.074h-1.006c-34.896-.326-67.445-13.72-92.275-37.894-24.16-23.846-37.58-55.859-37.245-89.833.334-69.58 59.055-126.42 131.533-126.42 72.142.326 130.191 57.82 129.855 128.053-.669 69.58-59.389 126.093-130.862 126.093v.001z" fill="#F5F5FA"/><path d="M160.524 166.098c26.724 0 48.476-21.784 48.476-48.548 0-26.764-21.752-48.548-48.476-48.548L109.252 69c-4.972 0-9.01 4.046-9.01 9.024 0 4.98 4.04 9.024 9.01 9.024h12.742v60.685h-13.983c-4.973 0-9.011 4.047-9.011 9.024 0 4.98 4.04 9.024 9.011 9.024h13.983v8.403h-13.052c-4.972 0-9.01 4.047-9.01 9.024 0 4.98 4.04 9.024 9.01 9.024h13.052v31.744c0 4.98 4.04 9.024 9.01 9.024 4.972 0 9.011-4.046 9.011-9.024l.002-31.116h51.894c4.973 0 9.011-4.047 9.011-9.024 0-4.98-4.041-9.024-9.011-9.024h-52.206v-8.403h20.82l-.001-.311zm-20.82-78.736h20.51c16.779 0 30.453 13.694 30.453 30.498 0 16.804-13.674 30.498-30.453 30.498h-20.51V87.362z" fill="#F5F5FA"/></svg>