<svg width="165" height="126" fill="none" xmlns="http://www.w3.org/2000/svg"><path d="M12.554 0C5.692 0 0 5.713 0 12.6v100.8c0 6.887 5.692 12.6 12.554 12.6h139.892c6.862 0 12.554-5.713 12.554-12.6V12.6C165 5.713 159.308 0 152.446 0H12.554zm0 10.8h139.892c1.087 0 1.794.71 1.794 1.801v71.55l-27.126-21.769c-1.775-1.441-4.496-1.56-6.389-.281L95.28 79.65 60.755 51.584a5.435 5.435 0 00-3.98-1.181 5.392 5.392 0 00-2.465.956L10.76 81.506V12.598c0-1.091.707-1.8 1.794-1.8v.003zm82.5 14.401c-8.85 0-16.14 7.318-16.14 16.2 0 8.883 7.29 16.199 16.14 16.199 8.852 0 16.141-7.318 16.141-16.2 0-8.883-7.291-16.199-16.14-16.199zm0 10.8c3.035 0 5.381 2.355 5.381 5.401s-2.346 5.4-5.38 5.4c-3.036 0-5.381-2.354-5.381-5.4 0-3.046 2.345-5.4 5.38-5.4zM57.167 62.554l34.525 28.012c1.775 1.441 4.496 1.56 6.389.28l25.388-17.55 30.769 24.694v15.41c0 1.09-.707 1.8-1.794 1.8H12.552c-1.087 0-1.794-.709-1.794-1.8V94.67l46.409-32.118z" fill="#E4E4FF"/></svg>