<svg width="196" height="34" fill="none" xmlns="http://www.w3.org/2000/svg"><path d="M2 33.5V18C2 9.44 8.94 2.5 17.5 2.5 26.06 2.5 33 9.44 33 18v15.5M25.25 18a7.75 7.75 0 01-15.5 0" stroke="#5B5CE3" stroke-width="4"/><path d="M53.48 27l5.28-17.28h4.872L68.912 27h-3.36l-4.704-15.24h.624L56.84 27h-3.36zm3.168-3.6v-3.048h9.12V23.4h-9.12zM79.895 27v-6.12c0-.296-.016-.672-.048-1.128a5.108 5.108 0 00-.3-1.392 2.625 2.625 0 00-.828-1.164c-.376-.312-.912-.468-1.608-.468-.28 0-.58.044-.9.132-.32.088-.62.26-.9.516-.28.248-.512.616-.696 1.104-.176.488-.264 1.136-.264 1.944l-1.872-.888c0-1.024.208-1.984.624-2.88a5.18 5.18 0 011.872-2.172c.84-.552 1.896-.828 3.168-.828 1.016 0 1.844.172 2.484.516.64.344 1.136.78 1.488 1.308.36.528.616 1.08.768 1.656.152.568.244 1.088.276 1.56.032.472.048.816.048 1.032V27h-3.312zm-8.856 0V14.04h2.904v4.296h.408V27h-3.312zm16.469 5.76l2.496-6.864.048 2.016-5.64-13.872h3.384l3.792 9.816h-.768l3.768-9.816h3.264l-7.32 18.72h-3.024zM115.139 27v-7.656c0-.856-.204-1.52-.612-1.992-.4-.48-.956-.72-1.668-.72-.456 0-.852.108-1.188.324-.336.208-.6.504-.792.888-.184.376-.276.812-.276 1.308l-1.368-.912c0-.888.208-1.672.624-2.352a4.41 4.41 0 011.692-1.584 4.9 4.9 0 012.364-.576c1.48 0 2.596.44 3.348 1.32.76.872 1.14 2.016 1.14 3.432V27h-3.264zm-15.624 0V14.04h2.88v4.296h.408V27h-3.288zm7.824 0v-7.656c0-.856-.204-1.52-.612-1.992-.4-.48-.956-.72-1.668-.72-.68 0-1.228.236-1.644.708-.408.464-.612 1.068-.612 1.812l-1.368-.96c0-.848.212-1.608.636-2.28a4.603 4.603 0 011.704-1.596c.72-.392 1.524-.588 2.412-.588 1.016 0 1.848.216 2.496.648a3.87 3.87 0 011.452 1.728c.312.72.468 1.512.468 2.376V27h-3.264zm17.785.36c-.928 0-1.716-.176-2.364-.528-.64-.36-1.128-.836-1.464-1.428a4.06 4.06 0 01-.492-1.98c0-.6.092-1.148.276-1.644.184-.496.48-.932.888-1.308.416-.384.972-.704 1.668-.96.48-.176 1.052-.332 1.716-.468a38.418 38.418 0 012.256-.384l2.772-.42-1.176.648c0-.768-.184-1.332-.552-1.692-.368-.36-.984-.54-1.848-.54-.48 0-.98.116-1.5.348-.52.232-.884.644-1.092 1.236l-2.952-.936a5.008 5.008 0 011.848-2.616c.904-.672 2.136-1.008 3.696-1.008 1.144 0 2.16.176 3.048.528.888.352 1.56.96 2.016 1.824.256.48.408.96.456 1.44.048.48.072 1.016.072 1.608V27h-2.856v-2.664l.408.552c-.632.872-1.316 1.504-2.052 1.896-.728.384-1.652.576-2.772.576zm.696-2.568c.6 0 1.104-.104 1.512-.312.416-.216.744-.46.984-.732.248-.272.416-.5.504-.684.168-.352.264-.76.288-1.224.032-.472.048-.864.048-1.176l.96.24c-.968.16-1.752.296-2.352.408-.6.104-1.084.2-1.452.288a8.47 8.47 0 00-.972.288c-.32.128-.58.268-.78.42a1.513 1.513 0 00-.432.48 1.296 1.296 0 00-.132.588c0 .296.072.552.216.768.152.208.364.368.636.48.272.112.596.168.972.168zM135.516 27V14.04h2.88v3.168l-.312-.408a4.78 4.78 0 01.672-1.224c.28-.368.624-.672 1.032-.912.312-.192.652-.34 1.02-.444.368-.112.748-.18 1.14-.204a5.781 5.781 0 011.176.024v3.048c-.36-.112-.78-.148-1.26-.108-.472.032-.9.14-1.284.324a2.906 2.906 0 00-1.572 1.74 4.05 4.05 0 00-.204 1.332V27h-3.288zm9.867 0l.024-17.28h3.312v10.56l4.392-6.24h4.032l-4.68 6.48 4.992 6.48h-4.248l-4.488-6.24V27h-3.336zm19.055.36c-1.328 0-2.5-.284-3.516-.852a6.3 6.3 0 01-2.376-2.364c-.568-1.008-.852-2.16-.852-3.456 0-1.416.28-2.648.84-3.696.56-1.048 1.332-1.86 2.316-2.436.984-.584 2.116-.876 3.396-.876 1.36 0 2.516.32 3.468.96.952.64 1.656 1.54 2.112 2.7.456 1.16.616 2.524.48 4.092h-3.228v-1.2c0-1.32-.212-2.268-.636-2.844-.416-.584-1.1-.876-2.052-.876-1.112 0-1.932.34-2.46 1.02-.52.672-.78 1.668-.78 2.988 0 1.208.26 2.144.78 2.808.528.656 1.3.984 2.316.984.64 0 1.188-.14 1.644-.42.456-.28.804-.684 1.044-1.212l3.264.936c-.488 1.184-1.26 2.104-2.316 2.76a6.365 6.365 0 01-3.444.984zm-4.296-5.928v-2.424h8.592v2.424h-8.592zM180.792 27c-.896.168-1.776.24-2.64.216-.856-.016-1.624-.164-2.304-.444a3.114 3.114 0 01-1.536-1.38c-.32-.592-.488-1.192-.504-1.8a81.215 81.215 0 01-.024-2.088V10.44h3.264v10.872c0 .504.004.96.012 1.368.016.4.1.72.252.96.288.456.748.704 1.38.744a10.7 10.7 0 002.1-.096V27zm-9.216-10.44v-2.52h9.216v2.52h-9.216zm17.168 10.8c-1.632 0-2.952-.368-3.96-1.104-1-.744-1.608-1.792-1.824-3.144l3.336-.504c.136.608.436 1.084.9 1.428.472.344 1.068.516 1.788.516.592 0 1.048-.112 1.368-.336.32-.232.48-.552.48-.96 0-.256-.064-.46-.192-.612-.128-.16-.416-.316-.864-.468a32.267 32.267 0 00-2.064-.6c-1.056-.272-1.9-.576-2.532-.912-.632-.336-1.088-.736-1.368-1.2-.28-.472-.42-1.04-.42-1.704 0-.832.212-1.552.636-2.16.424-.616 1.02-1.088 1.788-1.416.776-.336 1.688-.504 2.736-.504 1.016 0 1.916.156 2.7.468.784.312 1.416.756 1.896 1.332.488.576.788 1.256.9 2.04l-3.336.6c-.056-.48-.264-.86-.624-1.14-.36-.28-.848-.444-1.464-.492-.6-.04-1.084.04-1.452.24-.36.2-.54.488-.54.864 0 .224.076.412.228.564.16.152.484.308.972.468.496.16 1.248.368 2.256.624.984.256 1.772.556 2.364.9.6.336 1.036.744 1.308 1.224.272.472.408 1.044.408 1.716 0 1.328-.48 2.372-1.44 3.132-.96.76-2.288 1.14-3.984 1.14z" fill="#5B5CE3"/></svg>