<?xml version="1.0" encoding="utf-8"?><svg viewBox="0 0 44 44" xmlns="http://www.w3.org/2000/svg" xmlns:xlink="http://www.w3.org/1999/xlink"><style>:root>svg{display:none}:root>svg:target{display:block}</style><svg fill="none" viewBox="0 0 15 11" id="icon-arrow-right" xmlns="http://www.w3.org/2000/svg"><path d="M1 5.5h12m0 0L8.846 1M13 5.5L8.846 10" stroke="currentColor" stroke-width="2" stroke-linecap="round"/></svg><svg fill="none" viewBox="0 0 20 20" id="icon-copy" xmlns="http://www.w3.org/2000/svg"><path d="M5.883 19.748c1.493.001 2.926-.558 3.98-1.556l3.178-2.999a.707.707 0 00.18-.7.76.76 0 00-.54-.51.812.812 0 00-.742.17L8.762 17.15c-1.036.939-2.518 1.293-3.901.933-1.384-.36-2.465-1.381-2.846-2.688-.38-1.307-.006-2.707.987-3.685l3.178-3a.707.707 0 00.18-.701.759.759 0 00-.54-.51.812.812 0 00-.742.17l-3.177 3C.844 11.669.25 13.022.25 14.433c0 1.41.593 2.764 1.65 3.761 1.057.998 2.49 1.558 3.983 1.557v-.002zM10.723 1.72L7.708 4.733a.739.739 0 101.045 1.045l3.016-3.013a3.866 3.866 0 015.466 5.467l-3.015 3.015a.74.74 0 101.045 1.045l3.016-3.015a5.346 5.346 0 00-7.557-7.557z" fill="#fff"/><path d="M6.238 14.468a.688.688 0 00.504.227c.19 0 .371-.082.505-.227l7.255-7.86a.821.821 0 00.165-.737.747.747 0 00-.495-.537.676.676 0 00-.68.18L6.238 13.37a.808.808 0 00-.21.548c0 .206.075.403.21.549z" fill="#fff"/></svg><svg fill="none" viewBox="0 0 20 18" id="icon-exit" xmlns="http://www.w3.org/2000/svg"><path d="M19.733 9.636l-3.636 3.6-1.285-1.272L16.896 9.9H6.364V8.1h10.532l-2.084-2.064 1.285-1.272 3.636 3.6a.895.895 0 010 1.272zM10.91 16.2h-9.09V1.8h9.09v4.5h1.818V.9a.895.895 0 00-.266-.636.913.913 0 00-.643-.264H.91a.914.914 0 00-.643.264A.896.896 0 000 .9v16.2c0 .239.096.468.266.636.17.17.402.264.643.264h10.91a.914.914 0 00.642-.264.895.895 0 00.266-.636v-5.4H10.91v4.5z" fill="currentColor"/></svg><svg fill="none" viewBox="0 0 18 18" id="icon-info" xmlns="http://www.w3.org/2000/svg"><path d="M7.75 10.99v-.08c.006-.53.058-.95.158-1.262.102-.313.247-.566.434-.759.188-.193.414-.37.678-.528.17-.108.324-.229.46-.362.136-.134.244-.287.324-.46.08-.174.12-.366.12-.576 0-.253-.06-.472-.18-.656a1.193 1.193 0 00-.477-.426 1.397 1.397 0 00-.656-.154 1.49 1.49 0 00-.627.137c-.198.09-.363.233-.494.426-.13.19-.206.436-.226.737H5.97c.02-.511.149-.943.388-1.295.238-.356.554-.624.946-.806a3.09 3.09 0 011.308-.273c.523 0 .98.098 1.372.294.392.194.696.465.912.814.219.347.328.752.328 1.215 0 .318-.05.605-.15.86-.099.253-.24.48-.425.678-.182.2-.4.375-.657.529-.241.15-.437.306-.588.468a1.492 1.492 0 00-.323.576 3.014 3.014 0 00-.111.822v.081H7.75zm.643 2.591a.827.827 0 01-.6-.247.825.825 0 01-.252-.605c0-.233.084-.432.252-.597a.82.82 0 01.6-.251c.23 0 .43.083.597.251a.8.8 0 01.256.597c0 .156-.04.3-.12.43a.882.882 0 01-.306.307.812.812 0 01-.427.115z" fill="currentColor"/><rect x=".5" y=".5" width="17" height="17" rx="8.5" stroke="currentColor"/></svg><svg fill="none" viewBox="0 0 11 9" id="icon-mark" xmlns="http://www.w3.org/2000/svg"><path d="M1 5.19l2.15 2.094a2 2 0 003.083-.36L10 1" stroke="#F5F5FA" stroke-width="2" stroke-linecap="round"/></svg><svg fill="none" viewBox="0 0 11 9" id="icon-mark-accent" xmlns="http://www.w3.org/2000/svg"><path d="M1 5.19l2.15 2.094a2 2 0 003.083-.36L10 1" stroke="#5B5CE3" stroke-width="2" stroke-linecap="round"/></svg><svg fill="none" viewBox="0 0 39 44" id="icon-materials" xmlns="http://www.w3.org/2000/svg"><path d="M18.699 38.82H39V16.236c0-.269-.106-.527-.295-.717a1.004 1.004 0 00-.713-.298H23.884V1.015c0-.27-.107-.527-.295-.718A1.004 1.004 0 0022.876 0H3.583c-.95 0-1.86.38-2.532 1.055A3.62 3.62 0 000 3.603v21.563a3.62 3.62 0 001.05 2.55 3.57 3.57 0 002.533 1.058h11.533v11.618a3.62 3.62 0 001.05 2.551A3.57 3.57 0 0018.698 44h20.3v-2.03H18.7a1.56 1.56 0 01-1.166-.428 1.582 1.582 0 010-2.294 1.56 1.56 0 011.166-.428zM3.583 2.035h18.285v13.192h-3.17c-.949 0-1.86.379-2.531 1.054a3.618 3.618 0 00-1.051 2.548v2.74H3.583c-.544 0-1.08.124-1.568.365V3.608c0-.419.165-.82.46-1.116a1.562 1.562 0 011.108-.462v.005zm0 24.715a1.56 1.56 0 01-1.166-.43 1.582 1.582 0 010-2.293 1.56 1.56 0 011.166-.428h11.533v3.15H3.583zm13.549-7.92c.001-.418.166-.818.46-1.113.294-.295.692-.46 1.107-.46h18.285V36.79H18.7c-.544-.001-1.08.124-1.567.365V18.829z" fill="currentColor"/><path d="M34.458 19.53H19.664v6.884h14.794V19.53zm-2.016 4.855H21.68V21.56h10.763v2.826zM19.34 4.308H4.547v6.885H19.34V4.308zm-2.015 4.855H6.562V6.337h10.763v2.826z" fill="currentColor"/></svg><svg fill="none" viewBox="0 0 20 20" id="icon-settings" xmlns="http://www.w3.org/2000/svg"><path clip-rule="evenodd" d="M8.594 2.275l.081-.197a1.792 1.792 0 012.718-.718c.29.217.506.518.621.861l.063.206a1.792 1.792 0 002.4 1.112l.187-.081A1.789 1.789 0 0117.1 4.872c.05.36-.009.726-.17 1.05l-.099.189a1.794 1.794 0 00.895 2.473l.197.08a1.791 1.791 0 01.718 2.722 1.79 1.79 0 01-.861.621l-.206.063a1.79 1.79 0 00-1.128 2.402l.08.188a1.794 1.794 0 01-1.412 2.438 1.788 1.788 0 01-1.05-.17l-.188-.1a1.789 1.789 0 00-2.47.897l-.081.197a1.791 1.791 0 01-3.34-.143l-.062-.206a1.793 1.793 0 00-2.4-1.13l-.187.081A1.79 1.79 0 012.9 15.11c-.05-.359.009-.725.17-1.05l.099-.189a1.794 1.794 0 00-.895-2.473l-.197-.08a1.792 1.792 0 01.143-3.343l.206-.063A1.79 1.79 0 003.554 5.51l-.08-.188a1.794 1.794 0 011.42-2.415c.355-.051.719.007 1.041.166l.188.098a1.79 1.79 0 002.471-.896z" stroke="currentColor" stroke-width="1.375" stroke-linecap="round" stroke-linejoin="bevel"/><path d="M10 13.495c1.934 0 3.501-1.569 3.501-3.504a3.502 3.502 0 00-3.5-3.504A3.502 3.502 0 006.5 9.99a3.502 3.502 0 003.5 3.504z" stroke="currentColor" stroke-width="1.375" stroke-linecap="round" stroke-linejoin="bevel"/></svg><svg fill="none" viewBox="0 0 18 18" id="icon-support" xmlns="http://www.w3.org/2000/svg"><path d="M18 8.708c0-.66-.078-1.316-.231-1.959l-.005-.02a8.773 8.773 0 00-3.181-4.852A9.085 9.085 0 009.018.002L9.008 0h-.025a9.04 9.04 0 00-5.574 1.866A8.728 8.728 0 00.235 6.729l-.005.02a8.575 8.575 0 00.22 4.716 1.856 1.856 0 00.973 1.081 1.97 1.97 0 001.464.093l.767-.26a1.905 1.905 0 001.013-.77c.237-.362.339-.795.288-1.223l-.28-2.34a1.901 1.901 0 00-.589-1.137A1.972 1.972 0 002.9 6.387l-1.192-.082a7.498 7.498 0 012.776-3.638 7.741 7.741 0 014.412-1.395h.111a7.67 7.67 0 014.48 1.353 7.427 7.427 0 012.805 3.68l-1.2.083a1.971 1.971 0 00-1.185.527 1.901 1.901 0 00-.585 1.138l-.278 2.34c-.05.427.052.857.288 1.219.236.361.591.632 1.007.767l.782.265c.12.03.241.05.364.057a7.458 7.458 0 01-2.318 2.276 7.631 7.631 0 01-3.085 1.095 1.212 1.212 0 00-.428-.369 1.262 1.262 0 00-1.184.022 1.23 1.23 0 00-.463.452 1.198 1.198 0 00.015 1.235c.114.186.277.339.472.442a1.263 1.263 0 001.26-.046c.187-.117.338-.28.438-.474a8.925 8.925 0 004.474-1.846 8.66 8.66 0 002.803-3.883c.02-.048.061-.083.078-.133A8.44 8.44 0 0018 8.71v-.002zM2.8 7.653a.654.654 0 01.392.172.63.63 0 01.196.374l.277 2.328a.601.601 0 01-.096.4.621.621 0 01-.332.249l-.763.257a.677.677 0 01-.488-.032.578.578 0 01-.305-.337 7.349 7.349 0 01-.29-3.507l1.409.096zM16.012 11.4a.666.666 0 01-.478.036l-.779-.264a.618.618 0 01-.327-.246.598.598 0 01-.096-.393l.28-2.33a.629.629 0 01.19-.375.653.653 0 01.39-.175l1.417-.097a7.247 7.247 0 01-.268 3.41c-.004.01-.011.016-.014.026-.023.07-.06.132-.086.203a.575.575 0 01-.228.204l-.001.001zM8.999 5.386a.656.656 0 01-.454-.178.645.645 0 01-.194-.458.538.538 0 01.051-.242.525.525 0 01.143-.203.67.67 0 011.054.202.635.635 0 01-.6.879zM6.858 4.305a.596.596 0 01.195.445.635.635 0 01-.65.636.528.528 0 01-.246-.051.566.566 0 01-.207-.127.644.644 0 01-.195-.458.585.585 0 01.195-.445.67.67 0 01.908 0zm4.283.903a.488.488 0 01-.143-.216.5.5 0 01-.052-.242.586.586 0 01.195-.445.656.656 0 01.908 0 .596.596 0 01.143.687.488.488 0 01-.143.216.666.666 0 01-.908 0z" fill="currentColor"/></svg><svg fill="none" viewBox="0 0 11 16" id="icon-up-btn" xmlns="http://www.w3.org/2000/svg"><path d="M5.5 11.007V1.5m0 0L1 5.654M5.5 1.5L10 5.654M2 14.5h7" stroke="#fff" stroke-width="2" stroke-linecap="round"/></svg><svg fill="none" viewBox="0 0 37 37" id="icon-wiki" xmlns="http://www.w3.org/2000/svg"><path d="M34.578 0a1.35 1.35 0 00-.154.014H23.532a1.384 1.384 0 100 2.769h7.732L14.249 19.798a1.386 1.386 0 00-.02 1.976 1.382 1.382 0 001.977-.018L33.22 4.74v7.732a1.384 1.384 0 102.769 0V1.574A1.384 1.384 0 0034.579.001z" fill="currentColor"/><path d="M15.225 5.55c-3.454 0-6.065-.004-8.145.23-2.08.235-3.745.73-4.936 1.923C.953 8.895.464 10.557.23 12.636c-.234 2.08-.23 4.69-.23 8.14 0 3.452-.003 6.063.235 8.143.238 2.08.74 3.743 1.933 4.934 1.194 1.19 2.856 1.684 4.934 1.919 2.078.235 4.682.23 8.124.23 3.441 0 6.045.001 8.123-.235 2.078-.237 3.744-.733 4.937-1.925 1.193-1.192 1.69-2.855 1.927-4.934.238-2.079.238-4.686.238-8.132a1.383 1.383 0 10-2.768 0c0 3.444-.012 6.011-.22 7.819-.206 1.808-.588 2.744-1.135 3.29-.547.547-1.482.927-3.29 1.133-1.807.206-4.373.216-7.812.216-3.44 0-6.005-.01-7.813-.213-1.808-.205-2.744-.583-3.29-1.128-.547-.544-.929-1.481-1.136-3.29-.207-1.809-.219-4.378-.219-7.826 0-3.45.008-6.02.211-7.83.203-1.81.582-2.744 1.125-3.287.542-.542 1.477-.923 3.287-1.127 1.81-.204 4.381-.214 7.835-.214a1.384 1.384 0 100-2.768z" fill="currentColor"/></svg><svg fill="none" viewBox="0 0 44 36" id="icon-youtube" xmlns="http://www.w3.org/2000/svg"><path d="M27.423 16.78c.408.236.664.708.664 1.223 0 .516-.256.988-.664 1.223l-3.817 2.212-4.177 2.412a1.103 1.103 0 01-1.19-.05c-.362-.248-.585-.69-.587-1.167v-9.26c0-.478.222-.921.584-1.171.363-.25.815-.269 1.193-.051l4.177 2.418 3.817 2.211z" stroke="currentColor" stroke-width="2.5" stroke-linecap="round" stroke-linejoin="round"/><path d="M8.77 2h26.46C38.97 2 42 6.32 42 9.822v16.356C42 30.498 38.97 34 35.23 34H8.77C5.03 34 2 29.68 2 26.178V9.822C2 5.502 5.03 2 8.77 2z" stroke="currentColor" stroke-width="2.5" stroke-linecap="round" stroke-linejoin="round"/></svg></svg>