<?xml version="1.0" encoding="utf-8"?><svg viewBox="0 0 67 86" xmlns="http://www.w3.org/2000/svg" xmlns:xlink="http://www.w3.org/1999/xlink"><style>:root>svg{display:none}:root>svg:target{display:block}</style><svg fill="none" viewBox="0 0 507.965 507.965" id="icon-admin" xmlns="http://www.w3.org/2000/svg"><path d="M507.083 238.166c-2.7-7.3-10.8-11-18.1-8.3-20 7.4-40.4 13.7-61 19.1l-35.7-172.3c-8-40.8-50.9-67.6-93.8-52.7-28.7 10.3-60.3 10.3-89 0-40.6-13.9-84 8.8-93.9 52.7l-35.6 172.3c-20.7-5.4-41-11.7-61-19.1-7.3-2.7-15.4 1-18.1 8.3-2.7 7.3 1 15.4 8.3 18.1 160.5 57.6 328.9 57.8 489.6 0 7.3-2.7 11-10.8 8.3-18.1zm-399.6 17.4l13.1-63.2h35.6c7.8 0 14.1-6.3 14.1-14.1s-6.3-14.1-14.1-14.1h-29.7l5.8-28.2h59.2c7.8 0 14.1-6.3 14.1-14.1s-6.3-14.1-14.1-14.1h-53.3l5.2-25.3c4.4-22.1 29-41.2 56.7-31.8 34.8 12.5 73.2 12.5 108 0 29.3-9.5 52.5 10.7 56.7 31.8l35.8 173.1c-96.1 20.9-197.1 20.9-293.1 0zM450.183 399.566c-8.2-34.8-46.9-61.3-93.3-61.3-44.3 0-81.4 24-91.9 56.4-7.7-1.8-14.1-1.8-21.8 0-10.5-32.4-47.7-56.5-92-56.5-46.5 0-85.2 26.5-93.3 61.3-6.2 1.5-10.9 7-10.9 13.7s4.7 12.2 10.9 13.7c8.2 34.8 46.9 61.3 93.3 61.3 48 0 87.7-28.3 94-64.8 7-2.4 10.7-2.5 17.6-.1 6.2 36.6 46 64.9 94.1 64.9 46.5 0 85.1-26.5 93.3-61.3 6.2-1.5 10.9-7 10.9-13.7 0-6.5-4.7-12.1-10.9-13.6zm-299 60.5c-36.2 0-66.8-21.4-66.8-46.7 0-25.3 30.6-46.8 66.8-46.8s66.8 21.4 66.8 46.8-30.6 46.7-66.8 46.7zm205.6 0c-36.2 0-66.8-21.4-66.8-46.7 0-25.3 30.6-46.8 66.8-46.8 36.2 0 66.8 21.4 66.8 46.8s-30.6 46.7-66.8 46.7z" fill="currentColor"/></svg><svg fill="none" viewBox="0 0 11 15" id="icon-arrow-down" xmlns="http://www.w3.org/2000/svg"><path d="M5.5 1.5v12m0 0L10 9.346M5.5 13.5L1 9.346" stroke="currentColor" stroke-width="2" stroke-linecap="round"/></svg><svg fill="none" viewBox="0 0 6 10" id="icon-arrow-next" xmlns="http://www.w3.org/2000/svg"><path d="M1 1l3 4-3 4" stroke="currentColor" stroke-width="2" stroke-linecap="round"/></svg><svg fill="none" viewBox="0 0 6 10" id="icon-arrow-prev" xmlns="http://www.w3.org/2000/svg"><path d="M5 9L2 5l3-4" stroke="currentColor" stroke-width="2" stroke-linecap="round"/></svg><svg fill="none" viewBox="0 0 15 11" id="icon-arrow-right" xmlns="http://www.w3.org/2000/svg"><path d="M1 5.5h12m0 0L8.846 1M13 5.5L8.846 10" stroke="currentColor" stroke-width="2" stroke-linecap="round"/></svg><svg fill="none" viewBox="0 0 11 16" id="icon-arrow-up" xmlns="http://www.w3.org/2000/svg"><path d="M5.5 11.007V1.5m0 0L1 5.654M5.5 1.5L10 5.654M2 14.5h7" stroke="currentColor" stroke-width="2" stroke-linecap="round"/></svg><svg fill="none" viewBox="0 0 17 19" id="icon-block" xmlns="http://www.w3.org/2000/svg"><path d="M0 5.335v13.61h17V.054H5.28L0 5.336zm4.722-2.059v1.502H3.221l1.501-1.502zm10.389 13.78H1.889V6.665h4.722V1.944h8.5v15.111z" fill="currentColor"/><path d="M3.777 9.5h1.89v5.667h-1.89V9.5zM11.332 7.611h1.889v7.556h-1.889V7.61zM7.555 11.389h1.889v3.778h-1.89v-3.778z" fill="currentColor"/></svg><svg fill="none" viewBox="0 0 14 15" id="icon-calendar" xmlns="http://www.w3.org/2000/svg"><path fill-rule="evenodd" clip-rule="evenodd" d="M4.9 1.183A.692.692 0 004.2.5c-.387 0-.7.306-.7.683v.346c-.347.005-.656.017-.927.045-.504.051-.96.162-1.367.436a2.766 2.766 0 00-.708.692c-.281.396-.395.841-.448 1.332-.046.432-.05.958-.05 1.588v4.146c0 .925 0 1.687.083 2.29.087.634.278 1.194.737 1.642.46.448 1.033.634 1.682.719.62.081 1.4.081 2.349.081h4.298c.948 0 1.73 0 2.349-.081.649-.085 1.223-.271 1.682-.72.46-.447.65-1.007.737-1.64.083-.604.083-1.366.083-2.291V5.622c0-.63-.004-1.156-.05-1.588-.053-.491-.167-.936-.448-1.332a2.767 2.767 0 00-.709-.692c-.405-.274-.862-.385-1.366-.436-.271-.028-.58-.04-.927-.045v-.346A.692.692 0 009.8.5c-.387 0-.7.306-.7.683v.341H4.9v-.341zm7.7 4.439c0-.64-.005-1.092-.043-1.446-.04-.38-.114-.567-.206-.697a1.383 1.383 0 00-.354-.346c-.133-.09-.326-.161-.715-.2a9.35 9.35 0 00-.782-.038v.337a.692.692 0 01-.7.683.692.692 0 01-.7-.683V2.89H4.9v.342a.692.692 0 01-.7.683.692.692 0 01-.7-.683v-.337c-.31.004-.564.015-.782.037-.39.04-.582.111-.715.201-.138.094-.258.21-.354.346-.093.13-.166.317-.206.697-.038.354-.043.806-.043 1.446h11.2zM1.4 6.988V9.72c0 .985.001 1.655.07 2.156.067.483.184.706.34.858.156.152.385.266.879.331.514.068 1.201.07 2.21.07H9.1c1.01 0 1.697-.002 2.211-.07.494-.065.723-.179.879-.331.156-.152.273-.375.34-.857.069-.502.07-1.172.07-2.157V6.988H1.4z" fill="currentColor"/></svg><svg fill="none" viewBox="0 0 10 6" id="icon-caret" xmlns="http://www.w3.org/2000/svg"><path d="M9 1.5l-4 3-4-3" stroke="#5B5CE3" stroke-width="2" stroke-linecap="round"/></svg><svg fill="none" viewBox="0 0 15 18" id="icon-chat-before" xmlns="http://www.w3.org/2000/svg"><path d="M14.275 0v18L1.02 3.341C-.142 2.055.771 0 2.505 0h11.77z" fill="#7F7DDE"/></svg><svg fill="none" viewBox="0 0 14 18" id="icon-chat-before-white" xmlns="http://www.w3.org/2000/svg"><path d="M-.001 18V0l13.253 14.659c1.163 1.286.25 3.341-1.483 3.341H-.001z" fill="#fff"/></svg><svg fill="none" viewBox="0 0 16 16" id="icon-checkmark" xmlns="http://www.w3.org/2000/svg"><path d="M3 8.19l2.15 2.094a2 2 0 003.083-.36L12 4" stroke="currentColor" stroke-width="2" stroke-linecap="round"/></svg><svg fill="none" viewBox="0 0 16 16" id="icon-close" xmlns="http://www.w3.org/2000/svg"><path d="M13 3L3 13M13 13L3 3" stroke="currentColor" stroke-width="2" stroke-linecap="round"/></svg><svg fill="none" viewBox="0 0 16 17" id="icon-close-toasts" xmlns="http://www.w3.org/2000/svg"><g clip-path="url(#anclip0_617_17711)" stroke="#fff" stroke-width="2" stroke-linecap="round"><path d="M16 .5l-16 16M16 16.5L0 .5"/></g><defs><clipPath id="anclip0_617_17711"><path fill="#fff" transform="translate(0 .5)" d="M0 0h15.999v16H0z"/></clipPath></defs></svg><svg fill="none" viewBox="0 0 17 16" id="icon-copied" xmlns="http://www.w3.org/2000/svg"><rect x="1" y="4" width="11" height="11" rx="2" stroke="currentColor" stroke-width="2"/><rect x="5" y="1" width="11" height="11" rx="2" stroke="currentColor" stroke-width="2"/></svg><svg fill="none" viewBox="0 0 20 20" id="icon-copy" xmlns="http://www.w3.org/2000/svg"><path d="M5.883 19.748c1.493.001 2.926-.558 3.98-1.556l3.178-2.999a.707.707 0 00.18-.7.76.76 0 00-.54-.51.812.812 0 00-.742.17L8.762 17.15c-1.036.939-2.518 1.293-3.901.933-1.384-.36-2.465-1.381-2.846-2.688-.38-1.307-.006-2.707.987-3.685l3.178-3a.707.707 0 00.18-.701.759.759 0 00-.54-.51.812.812 0 00-.742.17l-3.177 3C.844 11.669.25 13.022.25 14.433c0 1.41.593 2.764 1.65 3.761 1.057.998 2.49 1.558 3.983 1.557v-.002zM10.723 1.72L7.708 4.733a.739.739 0 101.045 1.045l3.016-3.013a3.866 3.866 0 015.466 5.467l-3.015 3.015a.74.74 0 101.045 1.045l3.016-3.015a5.346 5.346 0 00-7.557-7.557z" fill="currentColor"/><path d="M6.238 14.468a.688.688 0 00.504.227c.19 0 .371-.082.505-.227l7.255-7.86a.821.821 0 00.165-.737.747.747 0 00-.495-.537.676.676 0 00-.68.18L6.238 13.37a.808.808 0 00-.21.548c0 .206.075.403.21.549z" fill="currentColor"/></svg><svg fill="none" viewBox="0 0 17 17" id="icon-cut" xmlns="http://www.w3.org/2000/svg"><path fill-rule="evenodd" clip-rule="evenodd" d="M3.7 3.4H1.567C.977 3.4.5 3.908.5 4.533c0 .626.478 1.134 1.067 1.134H3.7v5.666c0 .601.225 1.178.625 1.603.4.425.943.664 1.508.664h5.334v2.267c0 .625.478 1.133 1.066 1.133.59 0 1.067-.508 1.067-1.133V13.6h2.133c.59 0 1.067-.508 1.067-1.133 0-.626-.478-1.134-1.067-1.134H13.3V5.667c0-.602-.225-1.178-.625-1.603a2.07 2.07 0 00-1.508-.664H5.833V1.133C5.833.508 5.355 0 4.767 0 4.177 0 3.7.508 3.7 1.133V3.4zm2.133 2.267v5.666h5.334V5.667H5.833z" fill="currentColor"/></svg><svg fill="none" viewBox="0 0 12 13" id="icon-edit" xmlns="http://www.w3.org/2000/svg"><path d="M11.183 3.881c-.4.4-.6.6-.848.6-.249 0-.449-.2-.849-.6L8.121 2.516c-.4-.4-.6-.6-.6-.848 0-.249.2-.449.6-.849l.217-.217c.4-.4.6-.6.848-.6.249 0 .449.2.85.6L11.4 1.967c.4.4.6.6.6.849s-.2.449-.6.849l-.217.216zM1.2 12.002c-.566 0-.848 0-1.024-.175C0 11.65 0 11.368 0 10.802V9.437c0-.245 0-.368.046-.478.045-.11.132-.197.306-.37l5.306-5.307c.4-.4.6-.6.849-.6s.449.2.849.6L8.72 4.647c.4.4.6.6.6.848 0 .249-.2.449-.6.849l-5.307 5.307c-.174.173-.26.26-.37.306-.111.045-.234.045-.479.045H1.2z" fill="currentColor"/></svg><svg fill="none" viewBox="0 0 20 18" id="icon-exit" xmlns="http://www.w3.org/2000/svg"><path d="M19.733 9.636l-3.636 3.6-1.285-1.272L16.896 9.9H6.364V8.1h10.532l-2.084-2.064 1.285-1.272 3.636 3.6a.895.895 0 010 1.272zM10.91 16.2h-9.09V1.8h9.09v4.5h1.818V.9a.895.895 0 00-.266-.636.913.913 0 00-.643-.264H.91a.914.914 0 00-.643.264A.896.896 0 000 .9v16.2c0 .239.096.468.266.636.17.17.402.264.643.264h10.91a.914.914 0 00.642-.264.895.895 0 00.266-.636v-5.4H10.91v4.5z" fill="currentColor"/></svg><svg fill="none" viewBox="0 0 18 18" id="icon-info" xmlns="http://www.w3.org/2000/svg"><path d="M7.75 10.99v-.08c.006-.53.058-.95.158-1.262.102-.313.247-.566.434-.759.188-.193.414-.37.678-.528.17-.108.324-.229.46-.362.136-.134.244-.287.324-.46.08-.174.12-.366.12-.576 0-.253-.06-.472-.18-.656a1.193 1.193 0 00-.477-.426 1.397 1.397 0 00-.656-.154 1.49 1.49 0 00-.627.137c-.198.09-.363.233-.494.426-.13.19-.206.436-.226.737H5.97c.02-.511.149-.943.388-1.295.238-.356.554-.624.946-.806a3.09 3.09 0 011.308-.273c.523 0 .98.098 1.372.294.392.194.696.465.912.814.219.347.328.752.328 1.215 0 .318-.05.605-.15.86-.099.253-.24.48-.425.678-.182.2-.4.375-.657.529-.241.15-.437.306-.588.468a1.492 1.492 0 00-.323.576 3.014 3.014 0 00-.111.822v.081H7.75zm.643 2.591a.827.827 0 01-.6-.247.825.825 0 01-.252-.605c0-.233.084-.432.252-.597a.82.82 0 01.6-.251c.23 0 .43.083.597.251a.8.8 0 01.256.597c0 .156-.04.3-.12.43a.882.882 0 01-.306.307.812.812 0 01-.427.115z" fill="currentColor"/><rect x=".5" y=".5" width="17" height="17" rx="8.5" stroke="currentColor"/></svg><svg fill="none" viewBox="0 0 19 19" id="icon-list" xmlns="http://www.w3.org/2000/svg"><path fill-rule="evenodd" clip-rule="evenodd" d="M17.869 17.429h-2.714c-.625 0-1.131-.48-1.131-1.072v-.428c0-.592.506-1.072 1.13-1.072h2.715c.625 0 1.131.48 1.131 1.072v.428c0 .592-.506 1.072-1.131 1.072zm0-6.643h-2.714c-.625 0-1.131-.48-1.131-1.072v-.428c0-.592.506-1.072 1.13-1.072h2.715c.625 0 1.131.48 1.131 1.072v.428c0 .592-.506 1.072-1.131 1.072zm0-6.643h-2.714c-.625 0-1.131-.48-1.131-1.072v-.428c0-.592.506-1.072 1.13-1.072h2.715c.625 0 1.131.48 1.131 1.072v.428c0 .592-.506 1.072-1.131 1.072zm-7.012 13.286H8.143c-.625 0-1.131-.48-1.131-1.072v-.428c0-.592.506-1.072 1.13-1.072h2.715c.625 0 1.131.48 1.131 1.072v.428c0 .592-.506 1.072-1.13 1.072zm0-6.643H8.143c-.625 0-1.131-.48-1.131-1.072v-.428c0-.592.506-1.072 1.13-1.072h2.715c.625 0 1.131.48 1.131 1.072v.428c0 .592-.506 1.072-1.13 1.072zm0-6.643H8.143c-.625 0-1.131-.48-1.131-1.072v-.428c0-.592.506-1.072 1.13-1.072h2.715c.625 0 1.131.48 1.131 1.072v.428c0 .592-.506 1.072-1.13 1.072zM3.845 18.5H1.131C.506 18.5 0 18.02 0 17.429v-2.572c0-.592.506-1.071 1.131-1.071h2.714c.625 0 1.131.48 1.131 1.071v2.572c0 .591-.506 1.071-1.13 1.071zm0-6.643H1.131c-.625 0-1.131-.48-1.131-1.071V8.214c0-.591.506-1.071 1.131-1.071h2.714c.625 0 1.131.48 1.131 1.071v2.572c0 .592-.506 1.071-1.13 1.071zm0-6.643H1.131C.506 5.214 0 4.734 0 4.143V1.57C0 .98.506.5 1.131.5h2.714c.625 0 1.131.48 1.131 1.071v2.572c0 .591-.506 1.071-1.13 1.071z" fill="currentColor"/></svg><svg fill="none" viewBox="0 0 21 22" id="icon-loader" xmlns="http://www.w3.org/2000/svg"><mask id="ava" fill="#fff"><path d="M7.782 21.002A10.5 10.5 0 100 10.86h2.1a8.4 8.4 0 116.225 8.114l-.543 2.028z"/></mask><path d="M7.782 21.002A10.5 10.5 0 100 10.86h2.1a8.4 8.4 0 116.225 8.114l-.543 2.028z" fill="#fff" stroke="url(#avpaint0_linear_793_5455)" stroke-width="4" mask="url(#ava)"/><defs><linearGradient id="avpaint0_linear_793_5455" x1="11.859" y1="12.36" x2=".859" y2="7.36" gradientUnits="userSpaceOnUse"><stop stop-color="#fff"/><stop offset="1" stop-color="#5B5CE3"/></linearGradient></defs></svg><svg fill="none" viewBox="0 0 13 16" id="icon-lock" xmlns="http://www.w3.org/2000/svg"><path d="M11.375 5.6V4a3.97 3.97 0 00-1.19-2.828A4.096 4.096 0 007.312 0H5.688C4.61 0 3.578.421 2.816 1.172A3.97 3.97 0 001.625 4v1.6c-.431 0-.844.169-1.149.469C.171 6.369 0 6.776 0 7.2v7.2c0 .424.171.831.476 1.131.305.3.718.469 1.149.469h9.75c.431 0 .844-.168 1.149-.469.305-.3.476-.707.476-1.131V7.2c0-.424-.171-.831-.476-1.131a1.637 1.637 0 00-1.149-.469zm-4.063 5.384V13.6H5.688v-2.616A1.6 1.6 0 014.9 9.876a1.582 1.582 0 01.355-1.306A1.635 1.635 0 016.5 7.998c.48 0 .936.21 1.245.572.309.362.439.84.355 1.306a1.6 1.6 0 01-.787 1.108zM8.938 5.6H4.064V4c0-.424.17-.831.475-1.131.305-.3.719-.469 1.15-.469h1.625c.43 0 .844.169 1.149.469.304.3.476.707.476 1.131v1.6z" fill="currentColor"/></svg><svg fill="none" viewBox="0 0 11 9" id="icon-mark" xmlns="http://www.w3.org/2000/svg"><path d="M1 5.19l2.15 2.094a2 2 0 003.083-.36L10 1" stroke="#F5F5FA" stroke-width="2" stroke-linecap="round"/></svg><svg fill="none" viewBox="0 0 11 9" id="icon-mark-accent" xmlns="http://www.w3.org/2000/svg"><path d="M1 5.19l2.15 2.094a2 2 0 003.083-.36L10 1" stroke="#5B5CE3" stroke-width="2" stroke-linecap="round"/></svg><svg fill="none" viewBox="0 0 39 44" id="icon-materials" xmlns="http://www.w3.org/2000/svg"><path d="M18.699 38.82H39V16.236c0-.269-.106-.527-.295-.717a1.004 1.004 0 00-.713-.298H23.884V1.015c0-.27-.107-.527-.295-.718A1.004 1.004 0 0022.876 0H3.583c-.95 0-1.86.38-2.532 1.055A3.62 3.62 0 000 3.603v21.563a3.62 3.62 0 001.05 2.55 3.57 3.57 0 002.533 1.058h11.533v11.618a3.62 3.62 0 001.05 2.551A3.57 3.57 0 0018.698 44h20.3v-2.03H18.7a1.56 1.56 0 01-1.166-.428 1.582 1.582 0 010-2.294 1.56 1.56 0 011.166-.428zM3.583 2.035h18.285v13.192h-3.17c-.949 0-1.86.379-2.531 1.054a3.618 3.618 0 00-1.051 2.548v2.74H3.583c-.544 0-1.08.124-1.568.365V3.608c0-.419.165-.82.46-1.116a1.562 1.562 0 011.108-.462v.005zm0 24.715a1.56 1.56 0 01-1.166-.43 1.582 1.582 0 010-2.293 1.56 1.56 0 011.166-.428h11.533v3.15H3.583zm13.549-7.92c.001-.418.166-.818.46-1.113.294-.295.692-.46 1.107-.46h18.285V36.79H18.7c-.544-.001-1.08.124-1.567.365V18.829z" fill="currentColor"/><path d="M34.458 19.53H19.664v6.884h14.794V19.53zm-2.016 4.855H21.68V21.56h10.763v2.826zM19.34 4.308H4.547v6.885H19.34V4.308zm-2.015 4.855H6.562V6.337h10.763v2.826z" fill="currentColor"/></svg><svg fill="none" viewBox="0 0 67 86" id="icon-notification" xmlns="http://www.w3.org/2000/svg"><path d="M65.532 60.807L60.185 49.39a2.507 2.507 0 01-.272-1.178v-5.166c-2.084.816-4.259 1.178-6.615 1.178-.272 0-.543 0-.815-.09v4.078c0 1.269.272 2.537.815 3.987l4.713 9.97-49.933-.002 4.894-10.33c.362-1.179.543-2.356.543-3.625V36.34c0-8.155 5.166-15.496 12.778-18.215 1.45-.543 2.447-1.903 2.447-3.443v-2.9A4.255 4.255 0 0133 7.52c2.265 0 4.258 1.903 4.258 4.26v2.9c0 .453.09.906.272 1.359 1.722-2.81 4.078-5.075 6.978-6.616C43.42 3.987 38.798 0 33.09 0 26.655 0 21.4 5.256 21.4 11.69v.453C12.247 16.583 6.175 26.008 6.175 36.34v11.962c0 .363-.09.816 0 .816L.647 60.807c-.997 1.903-.815 4.169.362 5.98 1.179 1.813 3.172 2.901 5.256 2.901h10.24A16.614 16.614 0 0033.18 86c9.062 0 16.403-7.34 16.674-16.312h10.15a6.348 6.348 0 005.346-2.9c.998-1.812 1.18-3.988.183-5.98h-.001zM33.089 78.66c-4.984 0-9.062-3.988-9.243-8.88h18.396c-.09 4.893-4.168 8.88-9.153 8.88z" fill="#E4E4FF"/><path d="M65.167 25.737c0 6.506-5.275 11.78-11.78 11.78-6.507 0-11.782-5.274-11.782-11.78 0-6.507 5.275-11.781 11.781-11.781s11.78 5.274 11.78 11.78z" fill="#E4E4FF"/></svg><svg fill="none" viewBox="0 0 16 16" id="icon-pause" xmlns="http://www.w3.org/2000/svg"><path d="M5 4v8M11 4v8" stroke="currentColor" stroke-width="3" stroke-linecap="round"/></svg><svg fill="none" viewBox="0 0 14 15" id="icon-plus" xmlns="http://www.w3.org/2000/svg"><path d="M6.872 1.5v12M13 7.462L6.872 7.5 1 7.462" stroke="currentColor" stroke-width="2" stroke-linecap="round"/></svg><svg fill="none" viewBox="0 0 35 34" id="icon-plus-thin" xmlns="http://www.w3.org/2000/svg"><path d="M16.745 1.012v31.976M33.073 16.9l-16.328.1-15.647-.1" stroke="currentColor" stroke-width="2" stroke-linecap="round"/></svg><svg fill="none" viewBox="0 0 18 18" id="icon-process" xmlns="http://www.w3.org/2000/svg"><path d="M1 9a8 8 0 1016 0A8 8 0 001 9z" stroke="currentColor" stroke-width="2" stroke-linecap="round"/><path d="M8.5 5v3.7a1 1 0 001 1h3.531" stroke="currentColor" stroke-width="2" stroke-linecap="round"/></svg><svg fill="none" viewBox="0 0 13 15" id="icon-refresh" xmlns="http://www.w3.org/2000/svg"><path d="M12.623 6.498a5.78 5.78 0 00-1.37-2.12 6.408 6.408 0 00-2.199-1.415 7.086 7.086 0 00-4.405-.217l.515-1.279a.691.691 0 00-.15-.708.84.84 0 00-.737-.25.792.792 0 00-.615.448L2.487 3.87c0 .017-.014.034-.018.052a.684.684 0 00.068.574.741.741 0 00.12.15c.07.065.152.119.243.157l3.037 1.351a.86.86 0 00.785-.066.717.717 0 00.343-.652.736.736 0 00-.431-.607l-1.51-.672a5.402 5.402 0 013.304.162c1.27.486 2.248 1.455 2.679 2.656a4.373 4.373 0 01-.07 3.296c-.801 1.752-3.514 3.56-6.478 2.393a4.82 4.82 0 01-2.081-1.555 4.254 4.254 0 01-.874-2.33.74.74 0 00-.452-.61.864.864 0 00-.8.053.72.72 0 00-.35.665c.186 2.33 1.654 4.25 3.927 5.138a6.85 6.85 0 002.503.475 7.174 7.174 0 003.618-1.01 6.373 6.373 0 002.459-2.641 5.689 5.689 0 00.114-4.35z" fill="#5B5CE3"/></svg><svg fill="none" viewBox="0 0 12 13" id="icon-save" xmlns="http://www.w3.org/2000/svg"><path d="M11.473 3.324L9.176 1.027A1.787 1.787 0 007.903.5H1.8A1.8 1.8 0 000 2.3v8.4a1.8 1.8 0 001.8 1.8h8.4a1.8 1.8 0 001.8-1.8V4.597a1.786 1.786 0 00-.527-1.273zM4.2 11.3V9.5a.6.6 0 01.6-.6h2.4a.6.6 0 01.6.6v1.8H4.2zm6.6-.6a.6.6 0 01-.6.6H9V9.5a1.8 1.8 0 00-1.8-1.8H4.8A1.8 1.8 0 003 9.5v1.8H1.8a.6.6 0 01-.6-.6V2.3a.6.6 0 01.6-.6h6.103a.6.6 0 01.424.176l2.297 2.297a.6.6 0 01.176.424V10.7z" fill="currentColor"/></svg><svg fill="none" viewBox="0 0 20 20" id="icon-settings" xmlns="http://www.w3.org/2000/svg"><path clip-rule="evenodd" d="M8.594 2.275l.081-.197a1.792 1.792 0 012.718-.718c.29.217.506.518.621.861l.063.206a1.792 1.792 0 002.4 1.112l.187-.081A1.789 1.789 0 0117.1 4.872c.05.36-.009.726-.17 1.05l-.099.189a1.794 1.794 0 00.895 2.473l.197.08a1.791 1.791 0 01.718 2.722 1.79 1.79 0 01-.861.621l-.206.063a1.79 1.79 0 00-1.128 2.402l.08.188a1.794 1.794 0 01-1.412 2.438 1.788 1.788 0 01-1.05-.17l-.188-.1a1.789 1.789 0 00-2.47.897l-.081.197a1.791 1.791 0 01-3.34-.143l-.062-.206a1.793 1.793 0 00-2.4-1.13l-.187.081A1.79 1.79 0 012.9 15.11c-.05-.359.009-.725.17-1.05l.099-.189a1.794 1.794 0 00-.895-2.473l-.197-.08a1.792 1.792 0 01.143-3.343l.206-.063A1.79 1.79 0 003.554 5.51l-.08-.188a1.794 1.794 0 011.42-2.415c.355-.051.719.007 1.041.166l.188.098a1.79 1.79 0 002.471-.896z" stroke="currentColor" stroke-width="1.375" stroke-linecap="round" stroke-linejoin="bevel"/><path d="M10 13.495c1.934 0 3.501-1.569 3.501-3.504a3.502 3.502 0 00-3.5-3.504A3.502 3.502 0 006.5 9.99a3.502 3.502 0 003.5 3.504z" stroke="currentColor" stroke-width="1.375" stroke-linecap="round" stroke-linejoin="bevel"/></svg><svg fill="none" viewBox="0 0 18 18" id="icon-support" xmlns="http://www.w3.org/2000/svg"><path d="M18 8.708c0-.66-.078-1.316-.231-1.959l-.005-.02a8.773 8.773 0 00-3.181-4.852A9.085 9.085 0 009.018.002L9.008 0h-.025a9.04 9.04 0 00-5.574 1.866A8.728 8.728 0 00.235 6.729l-.005.02a8.575 8.575 0 00.22 4.716 1.856 1.856 0 00.973 1.081 1.97 1.97 0 001.464.093l.767-.26a1.905 1.905 0 001.013-.77c.237-.362.339-.795.288-1.223l-.28-2.34a1.901 1.901 0 00-.589-1.137A1.972 1.972 0 002.9 6.387l-1.192-.082a7.498 7.498 0 012.776-3.638 7.741 7.741 0 014.412-1.395h.111a7.67 7.67 0 014.48 1.353 7.427 7.427 0 012.805 3.68l-1.2.083a1.971 1.971 0 00-1.185.527 1.901 1.901 0 00-.585 1.138l-.278 2.34c-.05.427.052.857.288 1.219.236.361.591.632 1.007.767l.782.265c.12.03.241.05.364.057a7.458 7.458 0 01-2.318 2.276 7.631 7.631 0 01-3.085 1.095 1.212 1.212 0 00-.428-.369 1.262 1.262 0 00-1.184.022 1.23 1.23 0 00-.463.452 1.198 1.198 0 00.015 1.235c.114.186.277.339.472.442a1.263 1.263 0 001.26-.046c.187-.117.338-.28.438-.474a8.925 8.925 0 004.474-1.846 8.66 8.66 0 002.803-3.883c.02-.048.061-.083.078-.133A8.44 8.44 0 0018 8.71v-.002zM2.8 7.653a.654.654 0 01.392.172.63.63 0 01.196.374l.277 2.328a.601.601 0 01-.096.4.621.621 0 01-.332.249l-.763.257a.677.677 0 01-.488-.032.578.578 0 01-.305-.337 7.349 7.349 0 01-.29-3.507l1.409.096zM16.012 11.4a.666.666 0 01-.478.036l-.779-.264a.618.618 0 01-.327-.246.598.598 0 01-.096-.393l.28-2.33a.629.629 0 01.19-.375.653.653 0 01.39-.175l1.417-.097a7.247 7.247 0 01-.268 3.41c-.004.01-.011.016-.014.026-.023.07-.06.132-.086.203a.575.575 0 01-.228.204l-.001.001zM8.999 5.386a.656.656 0 01-.454-.178.645.645 0 01-.194-.458.538.538 0 01.051-.242.525.525 0 01.143-.203.67.67 0 011.054.202.635.635 0 01-.6.879zM6.858 4.305a.596.596 0 01.195.445.635.635 0 01-.65.636.528.528 0 01-.246-.051.566.566 0 01-.207-.127.644.644 0 01-.195-.458.585.585 0 01.195-.445.67.67 0 01.908 0zm4.283.903a.488.488 0 01-.143-.216.5.5 0 01-.052-.242.586.586 0 01.195-.445.656.656 0 01.908 0 .596.596 0 01.143.687.488.488 0 01-.143.216.666.666 0 01-.908 0z" fill="currentColor"/></svg><svg fill="none" viewBox="0 0 14 18" id="icon-trash" xmlns="http://www.w3.org/2000/svg"><rect x="1" y="5" width="12" height="12" rx="2" stroke="currentColor" stroke-width="2"/><path d="M5 8a1 1 0 011 1v4a1 1 0 11-2 0V9a1 1 0 011-1zM9 8a1 1 0 011 1v4a1 1 0 11-2 0V9a1 1 0 011-1zM1 2a1 1 0 011-1h10a1 1 0 110 2H2a1 1 0 01-1-1z" fill="currentColor"/><path d="M3 1a1 1 0 011-1h6a1 1 0 110 2H4a1 1 0 01-1-1z" fill="currentColor"/></svg><svg fill="none" viewBox="0 0 11 16" id="icon-up-btn" xmlns="http://www.w3.org/2000/svg"><path d="M5.5 11.007V1.5m0 0L1 5.654M5.5 1.5L10 5.654M2 14.5h7" stroke="currentColor" stroke-width="2" stroke-linecap="round"/></svg><svg fill="none" viewBox="0 0 37 37" id="icon-wiki" xmlns="http://www.w3.org/2000/svg"><path d="M34.578 0a1.35 1.35 0 00-.154.014H23.532a1.384 1.384 0 100 2.769h7.732L14.249 19.798a1.386 1.386 0 00-.02 1.976 1.382 1.382 0 001.977-.018L33.22 4.74v7.732a1.384 1.384 0 102.769 0V1.574A1.384 1.384 0 0034.579.001z" fill="currentColor"/><path d="M15.225 5.55c-3.454 0-6.065-.004-8.145.23-2.08.235-3.745.73-4.936 1.923C.953 8.895.464 10.557.23 12.636c-.234 2.08-.23 4.69-.23 8.14 0 3.452-.003 6.063.235 8.143.238 2.08.74 3.743 1.933 4.934 1.194 1.19 2.856 1.684 4.934 1.919 2.078.235 4.682.23 8.124.23 3.441 0 6.045.001 8.123-.235 2.078-.237 3.744-.733 4.937-1.925 1.193-1.192 1.69-2.855 1.927-4.934.238-2.079.238-4.686.238-8.132a1.383 1.383 0 10-2.768 0c0 3.444-.012 6.011-.22 7.819-.206 1.808-.588 2.744-1.135 3.29-.547.547-1.482.927-3.29 1.133-1.807.206-4.373.216-7.812.216-3.44 0-6.005-.01-7.813-.213-1.808-.205-2.744-.583-3.29-1.128-.547-.544-.929-1.481-1.136-3.29-.207-1.809-.219-4.378-.219-7.826 0-3.45.008-6.02.211-7.83.203-1.81.582-2.744 1.125-3.287.542-.542 1.477-.923 3.287-1.127 1.81-.204 4.381-.214 7.835-.214a1.384 1.384 0 100-2.768z" fill="currentColor"/></svg><svg fill="none" viewBox="0 0 44 36" id="icon-youtube" xmlns="http://www.w3.org/2000/svg"><path d="M27.423 16.78c.408.236.664.708.664 1.223 0 .516-.256.988-.664 1.223l-3.817 2.212-4.177 2.412a1.103 1.103 0 01-1.19-.05c-.362-.248-.585-.69-.587-1.167v-9.26c0-.478.222-.921.584-1.171.363-.25.815-.269 1.193-.051l4.177 2.418 3.817 2.211z" stroke="currentColor" stroke-width="2.5" stroke-linecap="round" stroke-linejoin="round"/><path d="M8.77 2h26.46C38.97 2 42 6.32 42 9.822v16.356C42 30.498 38.97 34 35.23 34H8.77C5.03 34 2 29.68 2 26.178V9.822C2 5.502 5.03 2 8.77 2z" stroke="currentColor" stroke-width="2.5" stroke-linecap="round" stroke-linejoin="round"/></svg></svg>